<svg xmlns="http://www.w3.org/2000/svg" width="64" height="64" viewBox="0 0 254 192"><path fill="none" stroke="#000" stroke-width="14" d="M30,60 h194 a20,20 0 0 1 20,20 v80 a20,20 0 0 1 -20,20 h-194 a20,20 0 0 1 -20,-20 v-80 a20,20 0 0 1 20,-20 z"/><path fill="none" stroke="#000" stroke-width="14" d="M 110 4 C 84 93 226 -50 195 60"/><rect width="18" height="18" x="42" y="82"/><rect width="18" height="18" x="72" y="82"/><rect width="18" height="18" x="102" y="82"/><rect width="18" height="18" x="132" y="82"/><rect width="18" height="18" x="162" y="82"/><rect width="18" height="18" x="192" y="82"/><rect width="18" height="18" x="42" y="112"/><rect width="18" height="18" x="72" y="112"/><rect width="18" height="18" x="102" y="112"/><rect width="18" height="18" x="132" y="112"/><rect width="18" height="18" x="162" y="112"/><rect width="18" height="18" x="192" y="112"/><rect width="18" height="18" x="42" y="142"/><rect width="110" height="18" x="72" y="142"/><rect width="18" height="18" x="192" y="142"/></svg>